<svg width="28" height="16" viewBox="0 0 28 16" fill="none" xmlns="http://www.w3.org/2000/svg">
<g id="SM">
<path d="M8.52267 4.59922C8.44849 3.94088 8.1425 3.4309 7.6047 3.06928C7.0669 2.70302 6.39001 2.51989 5.57404 2.51989C4.98988 2.51989 4.48453 2.61261 4.058 2.79806C3.63147 2.97887 3.29998 3.22923 3.06354 3.54912C2.83173 3.86439 2.71582 4.22369 2.71582 4.62704C2.71582 4.96549 2.79464 5.25757 2.95227 5.50328C3.11453 5.749 3.32548 5.95532 3.58511 6.12222C3.84937 6.28449 4.13218 6.42125 4.43353 6.53252C4.73489 6.63916 5.02465 6.72724 5.30282 6.79679L6.69368 7.15841C7.14803 7.26968 7.61397 7.42036 8.0915 7.61044C8.56903 7.80053 9.01179 8.05088 9.41977 8.36151C9.82776 8.67213 10.1569 9.05694 10.4073 9.51592C10.6623 9.97491 10.7898 10.5243 10.7898 11.1641C10.7898 11.9708 10.5811 12.6871 10.1639 13.313C9.75126 13.9389 9.15087 14.4326 8.36272 14.7942C7.5792 15.1559 6.6311 15.3367 5.51841 15.3367C4.45208 15.3367 3.52947 15.1675 2.75059 14.829C1.97171 14.4906 1.36205 14.0107 0.921608 13.3895C0.481169 12.7636 0.237768 12.0218 0.191406 11.1641H2.34724C2.38897 11.6787 2.55587 12.1076 2.84795 12.4506C3.14467 12.7891 3.52252 13.0418 3.9815 13.2087C4.44512 13.3709 4.95279 13.4521 5.5045 13.4521C6.11184 13.4521 6.65196 13.357 7.12485 13.1669C7.60238 12.9722 7.97791 12.7033 8.25145 12.3602C8.52499 12.0125 8.66175 11.6069 8.66175 11.1432C8.66175 10.7213 8.54121 10.3759 8.30013 10.107C8.06368 9.83814 7.74147 9.6156 7.33348 9.43942C6.93013 9.26325 6.47346 9.10794 5.96348 8.97348L4.28054 8.5145C3.14003 8.20388 2.23597 7.74721 1.56836 7.1445C0.905382 6.5418 0.573893 5.74437 0.573893 4.75222C0.573893 3.93161 0.796431 3.21532 1.24151 2.60334C1.68658 1.99136 2.28929 1.51615 3.04963 1.17771C3.80996 0.834626 4.66766 0.663086 5.62272 0.663086C6.58705 0.663086 7.4378 0.832308 8.17495 1.17075C8.91675 1.50919 9.50091 1.97513 9.92744 2.56857C10.354 3.15736 10.5765 3.83425 10.5951 4.59922H8.52267Z" fill="#005DFF"/>
<path d="M13.3576 0.857807H15.9655L20.4997 11.9291H20.6666L25.2008 0.857807H27.8087V15.1002H25.7641V4.79395H25.632L21.4316 15.0794H19.7348L15.5344 4.78699H15.4022V15.1002H13.3576V0.857807Z" fill="#005DFF"/>
</g>
</svg>
